<svg width="177" height="24" viewBox="0 0 177 24" fill="none" xmlns="http://www.w3.org/2000/svg">
<path d="M0.325 1.00132H6.742C9.05667 1.00132 11.051 1.43532 12.725 2.30332C14.4197 3.17132 15.7113 4.41132 16.6 6.02332C17.4887 7.63532 17.933 9.53665 17.933 11.7273C17.933 15.344 16.91 18.072 14.864 19.9113C12.818 21.7507 9.91433 22.6703 6.153 22.6703H0.325V1.00132ZM5.905 21.2753C12.849 21.2753 16.321 18.0927 16.321 11.7273C16.321 8.79265 15.484 6.50898 13.81 4.87632C12.1567 3.22298 9.75933 2.39632 6.618 2.39632H1.968V21.2753H5.905ZM29.7825 23.1353C27.1165 23.1353 25.0395 22.4533 23.5515 21.0893C22.0842 19.7047 21.3505 17.762 21.3505 15.2613C21.3505 12.8227 22.0118 10.8903 23.3345 9.46432C24.6778 8.03832 26.5792 7.32532 29.0385 7.32532C30.6918 7.32532 32.0972 7.64565 33.2545 8.28632C34.4118 8.92698 35.2798 9.81565 35.8585 10.9523C36.4578 12.089 36.7575 13.3807 36.7575 14.8273V15.8503H22.8385C22.8798 17.8137 23.5308 19.3017 24.7915 20.3143C26.0522 21.327 27.7572 21.8333 29.9065 21.8333C30.8778 21.8333 31.8285 21.7507 32.7585 21.5853C33.6885 21.42 34.5152 21.1823 35.2385 20.8723V22.2673C34.6392 22.5153 33.8125 22.722 32.7585 22.8873C31.7252 23.0527 30.7332 23.1353 29.7825 23.1353ZM35.2695 14.6413C35.2488 12.802 34.7218 11.345 33.6885 10.2703C32.6552 9.19565 31.1052 8.65832 29.0385 8.65832C27.0132 8.65832 25.4735 9.21632 24.4195 10.3323C23.3862 11.4483 22.8592 12.8847 22.8385 14.6413H35.2695ZM40.1806 7.79032H41.8856L46.9386 20.5623L51.9916 7.79032H53.6966L47.7136 22.6703H46.1326L40.1806 7.79032ZM68.3874 23.1353C66.2381 23.1353 64.3058 22.6703 62.5904 21.7403C60.8751 20.7897 59.5318 19.467 58.5604 17.7723C57.5891 16.057 57.1034 14.0833 57.1034 11.8513C57.1034 9.61932 57.5891 7.64565 58.5604 5.93032C59.5318 4.21498 60.8751 2.89232 62.5904 1.96232C64.3058 1.01165 66.2381 0.536317 68.3874 0.536317C71.3634 0.536317 73.8331 1.35265 75.7964 2.98532V4.62832C73.9158 2.89232 71.4771 2.02432 68.4804 2.02432C66.6204 2.02432 64.9464 2.42732 63.4584 3.23332C61.9911 4.03932 60.8338 5.18632 59.9864 6.67432C59.1391 8.16232 58.7154 9.88798 58.7154 11.8513C58.7154 13.8353 59.1391 15.5713 59.9864 17.0593C60.8544 18.5267 62.0324 19.6633 63.5204 20.4693C65.0084 21.2753 66.6618 21.6783 68.4804 21.6783C70.0511 21.6783 71.4564 21.4717 72.6964 21.0583C73.9364 20.6243 75.0628 19.9113 76.0754 18.9193V20.5623C74.2361 22.2777 71.6734 23.1353 68.3874 23.1353ZM86.0809 23.1353C84.5309 23.1353 83.1463 22.815 81.9269 22.1743C80.7283 21.513 79.7879 20.5933 79.1059 19.4153C78.4239 18.2167 78.0829 16.832 78.0829 15.2613C78.0829 13.6907 78.4239 12.306 79.1059 11.1073C79.7879 9.90865 80.7283 8.97865 81.9269 8.31732C83.1463 7.65598 84.5309 7.32532 86.0809 7.32532C87.6309 7.32532 89.0053 7.65598 90.2039 8.31732C91.4233 8.97865 92.3739 9.90865 93.0559 11.1073C93.7586 12.306 94.1099 13.6907 94.1099 15.2613C94.1099 16.832 93.7689 18.2167 93.0869 19.4153C92.4049 20.5933 91.4543 21.513 90.2349 22.1743C89.0156 22.815 87.6309 23.1353 86.0809 23.1353ZM86.0809 21.8333C87.3416 21.8333 88.4576 21.5647 89.4289 21.0273C90.4003 20.49 91.1546 19.7253 91.6919 18.7333C92.2293 17.7413 92.4979 16.584 92.4979 15.2613C92.4979 13.9387 92.2293 12.7813 91.6919 11.7893C91.1546 10.7767 90.4003 10.0017 89.4289 9.46432C88.4576 8.92698 87.3416 8.65832 86.0809 8.65832C84.8203 8.65832 83.7043 8.92698 82.7329 9.46432C81.7616 10.0017 81.0073 10.7767 80.4699 11.7893C79.9326 12.7813 79.6639 13.9387 79.6639 15.2613C79.6639 16.584 79.9326 17.7413 80.4699 18.7333C81.0073 19.7253 81.7616 20.49 82.7329 21.0273C83.7043 21.5647 84.8203 21.8333 86.0809 21.8333ZM98.1385 7.79032H99.7195V10.3013C100.484 9.26798 101.404 8.51365 102.478 8.03832C103.574 7.56298 104.721 7.32532 105.919 7.32532C107.862 7.32532 109.309 7.83165 110.259 8.84432C111.21 9.85698 111.685 11.2107 111.685 12.9053V22.6703H110.042V13.0293C110.042 11.624 109.701 10.5493 109.019 9.80532C108.337 9.04065 107.232 8.65832 105.702 8.65832C103.222 8.65832 101.238 9.78465 99.7505 12.0373V22.6703H98.1385V7.79032ZM116.181 7.79032H117.762V10.3013C118.527 9.26798 119.447 8.51365 120.521 8.03832C121.617 7.56298 122.764 7.32532 123.962 7.32532C125.905 7.32532 127.352 7.83165 128.302 8.84432C129.253 9.85698 129.728 11.2107 129.728 12.9053V22.6703H128.085V13.0293C128.085 11.624 127.744 10.5493 127.062 9.80532C126.38 9.04065 125.275 8.65832 123.745 8.65832C121.265 8.65832 119.281 9.78465 117.793 12.0373V22.6703H116.181V7.79032ZM142.036 23.1353C139.37 23.1353 137.293 22.4533 135.805 21.0893C134.338 19.7047 133.604 17.762 133.604 15.2613C133.604 12.8227 134.266 10.8903 135.588 9.46432C136.932 8.03832 138.833 7.32532 141.292 7.32532C142.946 7.32532 144.351 7.64565 145.508 8.28632C146.666 8.92698 147.534 9.81565 148.112 10.9523C148.712 12.089 149.011 13.3807 149.011 14.8273V15.8503H135.092C135.134 17.8137 135.785 19.3017 137.045 20.3143C138.306 21.327 140.011 21.8333 142.16 21.8333C143.132 21.8333 144.082 21.7507 145.012 21.5853C145.942 21.42 146.769 21.1823 147.492 20.8723V22.2673C146.893 22.5153 146.066 22.722 145.012 22.8873C143.979 23.0527 142.987 23.1353 142.036 23.1353ZM147.523 14.6413C147.503 12.802 146.976 11.345 145.942 10.2703C144.909 9.19565 143.359 8.65832 141.292 8.65832C139.267 8.65832 137.727 9.21632 136.673 10.3323C135.64 11.4483 135.113 12.8847 135.092 14.6413H147.523ZM160.401 23.1353C158.913 23.1353 157.56 22.8253 156.34 22.2053C155.142 21.5647 154.191 20.645 153.488 19.4463C152.786 18.2477 152.434 16.8527 152.434 15.2613C152.434 13.6907 152.786 12.306 153.488 11.1073C154.191 9.88798 155.152 8.95798 156.371 8.31732C157.611 7.65598 158.996 7.32532 160.525 7.32532C161.641 7.32532 162.613 7.42865 163.439 7.63532C164.287 7.84198 165.051 8.18298 165.733 8.65832V10.0533C165.031 9.55732 164.266 9.20598 163.439 8.99932C162.613 8.77198 161.672 8.65832 160.618 8.65832C159.378 8.65832 158.252 8.92698 157.239 9.46432C156.247 9.98098 155.462 10.7353 154.883 11.7273C154.305 12.7193 154.015 13.8973 154.015 15.2613C154.015 16.6253 154.294 17.8033 154.852 18.7953C155.431 19.7873 156.216 20.5417 157.208 21.0583C158.2 21.575 159.306 21.8333 160.525 21.8333C161.641 21.8333 162.623 21.7093 163.47 21.4613C164.338 21.2133 165.165 20.831 165.95 20.3143V21.7093C165.248 22.2053 164.442 22.567 163.532 22.7943C162.644 23.0217 161.6 23.1353 160.401 23.1353ZM174.491 23.1353C173.169 23.1353 172.146 22.7633 171.422 22.0193C170.699 21.2547 170.337 20.1387 170.337 18.6713V9.09232H167.95V7.79032H170.337V3.32632H171.949V7.79032H175.793V9.09232H171.949V18.7333C171.949 19.8287 172.187 20.6243 172.662 21.1203C173.138 21.5957 173.933 21.8333 175.049 21.8333C175.566 21.8333 176.103 21.73 176.661 21.5233V22.8873C176.103 23.0527 175.38 23.1353 174.491 23.1353Z" fill="black"/>
</svg>
