<svg width="348" height="45" viewBox="0 0 348 45" fill="none" xmlns="http://www.w3.org/2000/svg">
<path d="M0.575 1.361H13.202C17.7567 1.361 21.681 2.215 24.975 3.923C28.3097 5.631 30.8513 8.071 32.6 11.243C34.3487 14.415 35.223 18.1563 35.223 22.467C35.223 29.5837 33.21 34.9517 29.184 38.571C25.158 42.1903 19.4443 44 12.043 44H0.575V1.361ZM11.555 41.255C25.219 41.255 32.051 34.9923 32.051 22.467C32.051 16.6923 30.404 12.1987 27.11 8.986C23.8567 5.73266 19.1393 4.106 12.958 4.106H3.808V41.255H11.555ZM58.5398 44.915C53.2938 44.915 49.2068 43.573 46.2788 40.889C43.3914 38.1643 41.9478 34.3417 41.9478 29.421C41.9478 24.6223 43.2491 20.82 45.8518 18.014C48.4951 15.208 52.2364 13.805 57.0758 13.805C60.3291 13.805 63.0944 14.4353 65.3718 15.696C67.6491 16.9567 69.3571 18.7053 70.4958 20.942C71.6751 23.1787 72.2648 25.7203 72.2648 28.567V30.58H44.8758C44.9571 34.4433 46.2381 37.3713 48.7188 39.364C51.1994 41.3567 54.5544 42.353 58.7838 42.353C60.6951 42.353 62.5658 42.1903 64.3958 41.865C66.2258 41.5397 67.8524 41.072 69.2758 40.462V43.207C68.0964 43.695 66.4698 44.1017 64.3958 44.427C62.3624 44.7523 60.4104 44.915 58.5398 44.915ZM69.3368 28.201C69.2961 24.5817 68.2591 21.7147 66.2258 19.6C64.1924 17.4853 61.1424 16.428 57.0758 16.428C53.0904 16.428 50.0608 17.526 47.9868 19.722C45.9534 21.918 44.9164 24.7443 44.8758 28.201H69.3368ZM79.0005 14.72H82.3555L92.2985 39.852L102.242 14.72H105.597L93.8235 44H90.7125L79.0005 14.72ZM134.504 44.915C130.275 44.915 126.473 44 123.097 42.17C119.722 40.2993 117.079 37.6967 115.167 34.362C113.256 30.9867 112.3 27.103 112.3 22.711C112.3 18.319 113.256 14.4353 115.167 11.06C117.079 7.68467 119.722 5.082 123.097 3.252C126.473 1.38133 130.275 0.445997 134.504 0.445997C140.36 0.445997 145.22 2.05233 149.083 5.265V8.498C145.383 5.082 140.584 3.374 134.687 3.374C131.027 3.374 127.733 4.167 124.805 5.753C121.918 7.339 119.641 9.596 117.973 12.524C116.306 15.452 115.472 18.8477 115.472 22.711C115.472 26.615 116.306 30.031 117.973 32.959C119.681 35.8463 121.999 38.083 124.927 39.669C127.855 41.255 131.109 42.048 134.687 42.048C137.778 42.048 140.543 41.6413 142.983 40.828C145.423 39.974 147.64 38.571 149.632 36.619V39.852C146.013 43.2273 140.97 44.915 134.504 44.915ZM169.321 44.915C166.271 44.915 163.546 44.2847 161.147 43.024C158.788 41.7227 156.938 39.913 155.596 37.595C154.254 35.2363 153.583 32.5117 153.583 29.421C153.583 26.3303 154.254 23.6057 155.596 21.247C156.938 18.8883 158.788 17.0583 161.147 15.757C163.546 14.4557 166.271 13.805 169.321 13.805C172.371 13.805 175.075 14.4557 177.434 15.757C179.833 17.0583 181.704 18.8883 183.046 21.247C184.428 23.6057 185.12 26.3303 185.12 29.421C185.12 32.5117 184.449 35.2363 183.107 37.595C181.765 39.913 179.894 41.7227 177.495 43.024C175.095 44.2847 172.371 44.915 169.321 44.915ZM169.321 42.353C171.801 42.353 173.997 41.8243 175.909 40.767C177.82 39.7097 179.304 38.205 180.362 36.253C181.419 34.301 181.948 32.0237 181.948 29.421C181.948 26.8183 181.419 24.541 180.362 22.589C179.304 20.5963 177.82 19.0713 175.909 18.014C173.997 16.9567 171.801 16.428 169.321 16.428C166.84 16.428 164.644 16.9567 162.733 18.014C160.821 19.0713 159.337 20.5963 158.28 22.589C157.222 24.541 156.694 26.8183 156.694 29.421C156.694 32.0237 157.222 34.301 158.28 36.253C159.337 38.205 160.821 39.7097 162.733 40.767C164.644 41.8243 166.84 42.353 169.321 42.353ZM193.047 14.72H196.158V19.661C197.662 17.6277 199.472 16.1433 201.587 15.208C203.742 14.2727 205.999 13.805 208.358 13.805C212.18 13.805 215.027 14.8013 216.898 16.794C218.768 18.7867 219.704 21.4503 219.704 24.785V44H216.471V25.029C216.471 22.2637 215.8 20.149 214.458 18.685C213.116 17.1803 210.94 16.428 207.931 16.428C203.051 16.428 199.147 18.6443 196.219 23.077V44H193.047V14.72ZM228.551 14.72H231.662V19.661C233.166 17.6277 234.976 16.1433 237.091 15.208C239.246 14.2727 241.503 13.805 243.862 13.805C247.684 13.805 250.531 14.8013 252.402 16.794C254.272 18.7867 255.208 21.4503 255.208 24.785V44H251.975V25.029C251.975 22.2637 251.304 20.149 249.962 18.685C248.62 17.1803 246.444 16.428 243.435 16.428C238.555 16.428 234.651 18.6443 231.723 23.077V44H228.551V14.72ZM279.426 44.915C274.18 44.915 270.093 43.573 267.165 40.889C264.278 38.1643 262.834 34.3417 262.834 29.421C262.834 24.6223 264.136 20.82 266.738 18.014C269.382 15.208 273.123 13.805 277.962 13.805C281.216 13.805 283.981 14.4353 286.258 15.696C288.536 16.9567 290.244 18.7053 291.382 20.942C292.562 23.1787 293.151 25.7203 293.151 28.567V30.58H265.762C265.844 34.4433 267.125 37.3713 269.605 39.364C272.086 41.3567 275.441 42.353 279.67 42.353C281.582 42.353 283.452 42.1903 285.282 41.865C287.112 41.5397 288.739 41.072 290.162 40.462V43.207C288.983 43.695 287.356 44.1017 285.282 44.427C283.249 44.7523 281.297 44.915 279.426 44.915ZM290.223 28.201C290.183 24.5817 289.146 21.7147 287.112 19.6C285.079 17.4853 282.029 16.428 277.962 16.428C273.977 16.428 270.947 17.526 268.873 19.722C266.84 21.918 265.803 24.7443 265.762 28.201H290.223ZM315.564 44.915C312.636 44.915 309.973 44.305 307.573 43.085C305.215 41.8243 303.344 40.0147 301.961 37.656C300.579 35.2973 299.887 32.5523 299.887 29.421C299.887 26.3303 300.579 23.6057 301.961 21.247C303.344 18.8477 305.235 17.0177 307.634 15.757C310.074 14.4557 312.799 13.805 315.808 13.805C318.004 13.805 319.916 14.0083 321.542 14.415C323.21 14.8217 324.714 15.4927 326.056 16.428V19.173C324.674 18.197 323.169 17.5057 321.542 17.099C319.916 16.6517 318.065 16.428 315.991 16.428C313.551 16.428 311.335 16.9567 309.342 18.014C307.39 19.0307 305.845 20.515 304.706 22.467C303.568 24.419 302.998 26.737 302.998 29.421C302.998 32.105 303.547 34.423 304.645 36.375C305.784 38.327 307.329 39.8113 309.281 40.828C311.233 41.8447 313.409 42.353 315.808 42.353C318.004 42.353 319.936 42.109 321.603 41.621C323.311 41.133 324.938 40.3807 326.483 39.364V42.109C325.101 43.085 323.515 43.7967 321.725 44.244C319.977 44.6913 317.923 44.915 315.564 44.915ZM343.289 44.915C340.687 44.915 338.674 44.183 337.25 42.719C335.827 41.2143 335.115 39.0183 335.115 36.131V17.282H330.418V14.72H335.115V5.936H338.287V14.72H345.851V17.282H338.287V36.253C338.287 38.4083 338.755 39.974 339.69 40.95C340.626 41.8853 342.191 42.353 344.387 42.353C345.404 42.353 346.461 42.1497 347.559 41.743V44.427C346.461 44.7523 345.038 44.915 343.289 44.915Z" fill="black"/>
</svg>
